<?xml version="1.0" encoding="UTF-8"?><svg id="_レイヤー_1" xmlns="http://www.w3.org/2000/svg" viewBox="0 0 256 256"><defs><style>.cls-1{stroke:#000;}.cls-1,.cls-2{fill:none;stroke-miterlimit:10;stroke-width:16px;}.cls-3{fill:#fff;}.cls-2{stroke:#fff;}.cls-4{fill:#231815;}</style></defs><g><g><path class="cls-3" d="m153.35,68.11v60.24c-25,0-45.17,20.48-45.17,45.17v30.12h-60.24V68.11h105.41Z"/><path class="cls-3" d="m168.41,201.58l8.13-93.48,41.55,3.61-8.13,93.48-41.55-3.61Zm32.51-133.22c8.52.74,14.97,8.42,14.23,16.93-.76,8.73-8.42,14.97-16.94,14.23-8.72-.76-14.98-8.21-14.22-16.94.74-8.51,8.21-14.98,16.93-14.22Z"/></g><g><g><path class="cls-1" d="m153.35,68.11v60.24c-25,0-45.17,20.48-45.17,45.17v30.12h-60.24V68.11h105.41Z"/><path class="cls-1" d="m153.35,68.11v60.24c-25,0-45.17,20.48-45.17,45.17v30.12h-60.24V68.11h105.41Z"/></g><g><path class="cls-1" d="m168.41,201.58l8.13-93.48,41.55,3.61-8.13,93.48-41.55-3.61Zm32.51-133.22c8.52.74,14.97,8.42,14.23,16.93-.76,8.73-8.42,14.97-16.94,14.23-8.72-.76-14.98-8.21-14.22-16.94.74-8.51,8.21-14.98,16.93-14.22Z"/><path class="cls-1" d="m168.41,201.58l8.13-93.48,41.55,3.61-8.13,93.48-41.55-3.61Zm32.51-133.22c8.52.74,14.97,8.42,14.23,16.93-.76,8.73-8.42,14.97-16.94,14.23-8.72-.76-14.98-8.21-14.22-16.94.74-8.51,8.21-14.98,16.93-14.22Z"/></g></g><g><g><path d="m153.35,68.11v60.24c-25,0-45.17,20.48-45.17,45.17v30.12h-60.24V68.11h105.41Z"/><path d="m153.35,68.11v60.24c-25,0-45.17,20.48-45.17,45.17v30.12h-60.24V68.11h105.41Z"/></g><g><path d="m168.41,201.58l8.13-93.48,41.55,3.61-8.13,93.48-41.55-3.61Zm32.51-133.22c8.52.74,14.97,8.42,14.23,16.93-.76,8.73-8.42,14.97-16.94,14.23-8.72-.76-14.98-8.21-14.22-16.94.74-8.51,8.21-14.98,16.93-14.22Z"/><path d="m168.41,201.58l8.13-93.48,41.55,3.61-8.13,93.48-41.55-3.61Zm32.51-133.22c8.52.74,14.97,8.42,14.23,16.93-.76,8.73-8.42,14.97-16.94,14.23-8.72-.76-14.98-8.21-14.22-16.94.74-8.51,8.21-14.98,16.93-14.22Z"/></g></g></g><g><g><path class="cls-3" d="m143.32,50.81v60.24c-25,0-45.17,20.48-45.17,45.17v30.12h-60.24V50.81h105.41Z"/><path class="cls-3" d="m158.39,184.28l8.13-93.48,41.55,3.61-8.13,93.48-41.55-3.61Zm32.51-133.22c8.52.74,14.97,8.42,14.23,16.93s-8.42,14.97-16.94,14.23c-8.72-.76-14.98-8.21-14.22-16.94.74-8.51,8.21-14.98,16.93-14.22Z"/></g><g><g><path class="cls-2" d="m143.32,50.81v60.24c-25,0-45.17,20.48-45.17,45.17v30.12h-60.24V50.81h105.41Z"/><path class="cls-2" d="m143.32,50.81v60.24c-25,0-45.17,20.48-45.17,45.17v30.12h-60.24V50.81h105.41Z"/></g><g><path class="cls-2" d="m158.39,184.28l8.13-93.48,41.55,3.61-8.13,93.48-41.55-3.61Zm32.51-133.22c8.52.74,14.97,8.42,14.23,16.93s-8.42,14.97-16.94,14.23c-8.72-.76-14.98-8.21-14.22-16.94.74-8.51,8.21-14.98,16.93-14.22Z"/><path class="cls-2" d="m158.39,184.28l8.13-93.48,41.55,3.61-8.13,93.48-41.55-3.61Zm32.51-133.22c8.52.74,14.97,8.42,14.23,16.93s-8.42,14.97-16.94,14.23c-8.72-.76-14.98-8.21-14.22-16.94.74-8.51,8.21-14.98,16.93-14.22Z"/></g></g><g><g><path class="cls-4" d="m143.32,50.81v60.24c-25,0-45.17,20.48-45.17,45.17v30.12h-60.24V50.81h105.41Z"/><path class="cls-4" d="m143.32,50.81v60.24c-25,0-45.17,20.48-45.17,45.17v30.12h-60.24V50.81h105.41Z"/></g><g><path class="cls-4" d="m158.39,184.28l8.13-93.48,41.55,3.61-8.13,93.48-41.55-3.61Zm32.51-133.22c8.52.74,14.97,8.42,14.23,16.93s-8.42,14.97-16.94,14.23c-8.72-.76-14.98-8.21-14.22-16.94.74-8.51,8.21-14.98,16.93-14.22Z"/><path class="cls-4" d="m158.39,184.28l8.13-93.48,41.55,3.61-8.13,93.48-41.55-3.61Zm32.51-133.22c8.52.74,14.97,8.42,14.23,16.93s-8.42,14.97-16.94,14.23c-8.72-.76-14.98-8.21-14.22-16.94.74-8.51,8.21-14.98,16.93-14.22Z"/></g></g></g></svg>