<?xml version="1.0" encoding="UTF-8"?><svg id="_レイヤー_1" xmlns="http://www.w3.org/2000/svg" viewBox="0 0 690 274"><defs><style>.cls-1{stroke:#000;}.cls-1,.cls-2{fill:none;stroke-miterlimit:10;stroke-width:16px;}.cls-3{fill:#fff;}.cls-2{stroke:#fff;}.cls-4{fill:#231815;}</style></defs><g><g><path class="cls-3" d="m129.38,45.34v60.24c-25,0-45.17,20.48-45.17,45.17v30.12H23.97V45.34h105.41Z"/><path class="cls-3" d="m144.45,178.81l8.13-93.48,41.55,3.61-8.13,93.48-41.55-3.61Zm32.51-133.22c8.52.74,14.97,8.42,14.23,16.93-.76,8.73-8.42,14.97-16.94,14.23-8.72-.76-14.98-8.21-14.22-16.94.74-8.51,8.21-14.98,16.93-14.22Z"/><path class="cls-3" d="m278.71,82.32l5.94,41.28c-17.13,2.47-28.93,18.49-26.5,35.41l2.97,20.64-41.28,5.94-13.37-92.87,72.23-10.4Z"/><path class="cls-3" d="m411.28,120.66c-17.29-.78-31.89,12.76-32.66,29.84l-1.41,31.25-41.66-1.88,1.41-31.25c.77-17.08-12.76-31.89-29.84-32.66l-5.21-.24,1.2-31.25,5.42.24c17.08.77,31.88-12.55,32.66-29.84l.94-20.83,62.49,2.82-.94,20.83-5.21-.24c-8.75-.4-15.95,6.38-16.33,14.92-.39,8.75,6.17,15.93,14.71,16.32l21.04.95-1.41,31.24-5.21-.24Z"/><path class="cls-3" d="m524.01,135.65c3.53,8.01,12.6,11.53,20.62,8l6.31,14.31-85.86,37.85-37.85-85.86,85.86-37.85,18.93,42.93c-8.02,3.53-11.45,12.79-8,20.62Zm-26.93-22.31c-3.45-7.82-12.8-11.45-20.62-8-8.02,3.53-11.45,12.8-8,20.62,3.53,8.02,12.6,11.54,20.62,8,7.82-3.45,11.53-12.6,8-20.62Z"/><path class="cls-3" d="m638.47,129.57c4.87,7.28,14.41,9.17,21.69,4.31l8.69,13-78,52.16-52.16-78,78-52.16,26.08,39c-7.28,4.87-9.06,14.59-4.31,21.69Zm-30.39-17.31c-4.75-7.1-14.59-9.06-21.69-4.31-7.28,4.87-9.06,14.59-4.31,21.69,4.87,7.28,14.41,9.18,21.69,4.31,7.1-4.75,9.17-14.41,4.31-21.69Z"/><path class="cls-3" d="m393.99,258.89h-18.39l-.12-18.39h18.51v18.39Z"/><path class="cls-3" d="m406.86,203.73h55.16v18.39h-9.2c-5.15,0-9.19,4.17-9.19,9.2s4.05,9.19,9.19,9.19h9.2v18.39h-55.16v-55.16Z"/><path class="cls-3" d="m529.45,203.73v55.16h-55.16v-55.16h55.16Zm-18.39,27.58c0-5.03-4.17-9.2-9.19-9.2s-9.19,4.17-9.19,9.2,4.04,9.19,9.19,9.19,9.19-4.05,9.19-9.19Z"/><path class="cls-3" d="m621.38,203.73v55.16h-18.39v-12.26c0-3.31-2.82-6.13-6.13-6.13s-6.13,2.82-6.13,6.13v12.26h-18.39v-12.26c0-3.31-2.82-6.13-6.13-6.13s-6.13,2.82-6.13,6.13v12.26h-18.39v-55.16h79.68Z"/></g><g><g><path class="cls-1" d="m129.38,45.34v60.24c-25,0-45.17,20.48-45.17,45.17v30.12H23.97V45.34h105.41Z"/><path class="cls-1" d="m129.38,45.34v60.24c-25,0-45.17,20.48-45.17,45.17v30.12H23.97V45.34h105.41Z"/></g><g><path class="cls-1" d="m144.45,178.81l8.13-93.48,41.55,3.61-8.13,93.48-41.55-3.61Zm32.51-133.22c8.52.74,14.97,8.42,14.23,16.93-.76,8.73-8.42,14.97-16.94,14.23-8.72-.76-14.98-8.21-14.22-16.94.74-8.51,8.21-14.98,16.93-14.22Z"/><path class="cls-1" d="m144.45,178.81l8.13-93.48,41.55,3.61-8.13,93.48-41.55-3.61Zm32.51-133.22c8.52.74,14.97,8.42,14.23,16.93-.76,8.73-8.42,14.97-16.94,14.23-8.72-.76-14.98-8.21-14.22-16.94.74-8.51,8.21-14.98,16.93-14.22Z"/></g><g><path class="cls-1" d="m278.71,82.32l5.94,41.28c-17.13,2.47-28.93,18.49-26.5,35.41l2.97,20.64-41.28,5.94-13.37-92.87,72.23-10.4Z"/><path class="cls-1" d="m278.71,82.32l5.94,41.28c-17.13,2.47-28.93,18.49-26.5,35.41l2.97,20.64-41.28,5.94-13.37-92.87,72.23-10.4Z"/></g><g><path class="cls-1" d="m411.28,120.66c-17.29-.78-31.89,12.76-32.66,29.84l-1.41,31.25-41.66-1.88,1.41-31.25c.77-17.08-12.76-31.89-29.84-32.66l-5.21-.24,1.2-31.25,5.42.24c17.08.77,31.88-12.55,32.66-29.84l.94-20.83,62.49,2.82-.94,20.83-5.21-.24c-8.75-.4-15.95,6.38-16.33,14.92-.39,8.75,6.17,15.93,14.71,16.32l21.04.95-1.41,31.24-5.21-.24Z"/><path class="cls-1" d="m411.28,120.66c-17.29-.78-31.89,12.76-32.66,29.84l-1.41,31.25-41.66-1.88,1.41-31.25c.77-17.08-12.76-31.89-29.84-32.66l-5.21-.24,1.2-31.25,5.42.24c17.08.77,31.88-12.55,32.66-29.84l.94-20.83,62.49,2.82-.94,20.83-5.21-.24c-8.75-.4-15.95,6.38-16.33,14.92-.39,8.75,6.17,15.93,14.71,16.32l21.04.95-1.41,31.24-5.21-.24Z"/></g><g><path class="cls-1" d="m524.01,135.65c3.53,8.01,12.6,11.53,20.62,8l6.31,14.31-85.86,37.85-37.85-85.86,85.86-37.85,18.93,42.93c-8.02,3.53-11.45,12.79-8,20.62Zm-26.93-22.31c-3.45-7.82-12.8-11.45-20.62-8-8.02,3.53-11.45,12.8-8,20.62,3.53,8.02,12.6,11.54,20.62,8,7.82-3.45,11.53-12.6,8-20.62Z"/><path class="cls-1" d="m524.01,135.65c3.53,8.01,12.6,11.53,20.62,8l6.31,14.31-85.86,37.85-37.85-85.86,85.86-37.85,18.93,42.93c-8.02,3.53-11.45,12.79-8,20.62Zm-26.93-22.31c-3.45-7.82-12.8-11.45-20.62-8-8.02,3.53-11.45,12.8-8,20.62,3.53,8.02,12.6,11.54,20.62,8,7.82-3.45,11.53-12.6,8-20.62Z"/></g><g><path class="cls-1" d="m638.47,129.57c4.87,7.28,14.41,9.17,21.69,4.31l8.69,13-78,52.16-52.16-78,78-52.16,26.08,39c-7.28,4.87-9.06,14.59-4.31,21.69Zm-30.39-17.31c-4.75-7.1-14.59-9.06-21.69-4.31-7.28,4.87-9.06,14.59-4.31,21.69,4.87,7.28,14.41,9.18,21.69,4.31,7.1-4.75,9.17-14.41,4.31-21.69Z"/><path class="cls-1" d="m638.47,129.57c4.87,7.28,14.41,9.17,21.69,4.31l8.69,13-78,52.16-52.16-78,78-52.16,26.08,39c-7.28,4.87-9.06,14.59-4.31,21.69Zm-30.39-17.31c-4.75-7.1-14.59-9.06-21.69-4.31-7.28,4.87-9.06,14.59-4.31,21.69,4.87,7.28,14.41,9.18,21.69,4.31,7.1-4.75,9.17-14.41,4.31-21.69Z"/></g><g><path class="cls-1" d="m393.99,258.89h-18.39l-.12-18.39h18.51v18.39Z"/><path class="cls-1" d="m393.99,258.89h-18.39l-.12-18.39h18.51v18.39Z"/></g><g><path class="cls-1" d="m406.86,203.73h55.16v18.39h-9.2c-5.15,0-9.19,4.17-9.19,9.2s4.05,9.19,9.19,9.19h9.2v18.39h-55.16v-55.16Z"/><path class="cls-1" d="m406.86,203.73h55.16v18.39h-9.2c-5.15,0-9.19,4.17-9.19,9.2s4.05,9.19,9.19,9.19h9.2v18.39h-55.16v-55.16Z"/></g><g><path class="cls-1" d="m529.45,203.73v55.16h-55.16v-55.16h55.16Zm-18.39,27.58c0-5.03-4.17-9.2-9.19-9.2s-9.19,4.17-9.19,9.2,4.04,9.19,9.19,9.19,9.19-4.05,9.19-9.19Z"/><path class="cls-1" d="m529.45,203.73v55.16h-55.16v-55.16h55.16Zm-18.39,27.58c0-5.03-4.17-9.2-9.19-9.2s-9.19,4.17-9.19,9.2,4.04,9.19,9.19,9.19,9.19-4.05,9.19-9.19Z"/></g><g><path class="cls-1" d="m621.38,203.73v55.16h-18.39v-12.26c0-3.31-2.82-6.13-6.13-6.13s-6.13,2.82-6.13,6.13v12.26h-18.39v-12.26c0-3.31-2.82-6.13-6.13-6.13s-6.13,2.82-6.13,6.13v12.26h-18.39v-55.16h79.68Z"/><path class="cls-1" d="m621.38,203.73v55.16h-18.39v-12.26c0-3.31-2.82-6.13-6.13-6.13s-6.13,2.82-6.13,6.13v12.26h-18.39v-12.26c0-3.31-2.82-6.13-6.13-6.13s-6.13,2.82-6.13,6.13v12.26h-18.39v-55.16h79.68Z"/></g></g><g><g><path d="m129.38,45.34v60.24c-25,0-45.17,20.48-45.17,45.17v30.12H23.97V45.34h105.41Z"/><path d="m129.38,45.34v60.24c-25,0-45.17,20.48-45.17,45.17v30.12H23.97V45.34h105.41Z"/></g><g><path d="m144.45,178.81l8.13-93.48,41.55,3.61-8.13,93.48-41.55-3.61Zm32.51-133.22c8.52.74,14.97,8.42,14.23,16.93-.76,8.73-8.42,14.97-16.94,14.23-8.72-.76-14.98-8.21-14.22-16.94.74-8.51,8.21-14.98,16.93-14.22Z"/><path d="m144.45,178.81l8.13-93.48,41.55,3.61-8.13,93.48-41.55-3.61Zm32.51-133.22c8.52.74,14.97,8.42,14.23,16.93-.76,8.73-8.42,14.97-16.94,14.23-8.72-.76-14.98-8.21-14.22-16.94.74-8.51,8.21-14.98,16.93-14.22Z"/></g><g><path d="m278.71,82.32l5.94,41.28c-17.13,2.47-28.93,18.49-26.5,35.41l2.97,20.64-41.28,5.94-13.37-92.87,72.23-10.4Z"/><path d="m278.71,82.32l5.94,41.28c-17.13,2.47-28.93,18.49-26.5,35.41l2.97,20.64-41.28,5.94-13.37-92.87,72.23-10.4Z"/></g><g><path d="m411.28,120.66c-17.29-.78-31.89,12.76-32.66,29.84l-1.41,31.25-41.66-1.88,1.41-31.25c.77-17.08-12.76-31.89-29.84-32.66l-5.21-.24,1.2-31.25,5.42.24c17.08.77,31.88-12.55,32.66-29.84l.94-20.83,62.49,2.82-.94,20.83-5.21-.24c-8.75-.4-15.95,6.38-16.33,14.92-.39,8.75,6.17,15.93,14.71,16.32l21.04.95-1.41,31.24-5.21-.24Z"/><path d="m411.28,120.66c-17.29-.78-31.89,12.76-32.66,29.84l-1.41,31.25-41.66-1.88,1.41-31.25c.77-17.08-12.76-31.89-29.84-32.66l-5.21-.24,1.2-31.25,5.42.24c17.08.77,31.88-12.55,32.66-29.84l.94-20.83,62.49,2.82-.94,20.83-5.21-.24c-8.75-.4-15.95,6.38-16.33,14.92-.39,8.75,6.17,15.93,14.71,16.32l21.04.95-1.41,31.24-5.21-.24Z"/></g><g><path d="m524.01,135.65c3.53,8.01,12.6,11.53,20.62,8l6.31,14.31-85.86,37.85-37.85-85.86,85.86-37.85,18.93,42.93c-8.02,3.53-11.45,12.79-8,20.62Zm-26.93-22.31c-3.45-7.82-12.8-11.45-20.62-8-8.02,3.53-11.45,12.8-8,20.62,3.53,8.02,12.6,11.54,20.62,8,7.82-3.45,11.53-12.6,8-20.62Z"/><path d="m524.01,135.65c3.53,8.01,12.6,11.53,20.62,8l6.31,14.31-85.86,37.85-37.85-85.86,85.86-37.85,18.93,42.93c-8.02,3.53-11.45,12.79-8,20.62Zm-26.93-22.31c-3.45-7.82-12.8-11.45-20.62-8-8.02,3.53-11.45,12.8-8,20.62,3.53,8.02,12.6,11.54,20.62,8,7.82-3.45,11.53-12.6,8-20.62Z"/></g><g><path d="m638.47,129.57c4.87,7.28,14.41,9.17,21.69,4.31l8.69,13-78,52.16-52.16-78,78-52.16,26.08,39c-7.28,4.87-9.06,14.59-4.31,21.69Zm-30.39-17.31c-4.75-7.1-14.59-9.06-21.69-4.31-7.28,4.87-9.06,14.59-4.31,21.69,4.87,7.28,14.41,9.18,21.69,4.31,7.1-4.75,9.17-14.41,4.31-21.69Z"/><path d="m638.47,129.57c4.87,7.28,14.41,9.17,21.69,4.31l8.69,13-78,52.16-52.16-78,78-52.16,26.08,39c-7.28,4.87-9.06,14.59-4.31,21.69Zm-30.39-17.31c-4.75-7.1-14.59-9.06-21.69-4.31-7.28,4.87-9.06,14.59-4.31,21.69,4.87,7.28,14.41,9.18,21.69,4.31,7.1-4.75,9.17-14.41,4.31-21.69Z"/></g><g><path d="m393.99,258.89h-18.39l-.12-18.39h18.51v18.39Z"/><path d="m393.99,258.89h-18.39l-.12-18.39h18.51v18.39Z"/></g><g><path d="m406.86,203.73h55.16v18.39h-9.2c-5.15,0-9.19,4.17-9.19,9.2s4.05,9.19,9.19,9.19h9.2v18.39h-55.16v-55.16Z"/><path d="m406.86,203.73h55.16v18.39h-9.2c-5.15,0-9.19,4.17-9.19,9.2s4.05,9.19,9.19,9.19h9.2v18.39h-55.16v-55.16Z"/></g><g><path d="m529.45,203.73v55.16h-55.16v-55.16h55.16Zm-18.39,27.58c0-5.03-4.17-9.2-9.19-9.2s-9.19,4.17-9.19,9.2,4.04,9.19,9.19,9.19,9.19-4.05,9.19-9.19Z"/><path d="m529.45,203.73v55.16h-55.16v-55.16h55.16Zm-18.39,27.58c0-5.03-4.17-9.2-9.19-9.2s-9.19,4.17-9.19,9.2,4.04,9.19,9.19,9.19,9.19-4.05,9.19-9.19Z"/></g><g><path d="m621.38,203.73v55.16h-18.39v-12.26c0-3.31-2.82-6.13-6.13-6.13s-6.13,2.82-6.13,6.13v12.26h-18.39v-12.26c0-3.31-2.82-6.13-6.13-6.13s-6.13,2.82-6.13,6.13v12.26h-18.39v-55.16h79.68Z"/><path d="m621.38,203.73v55.16h-18.39v-12.26c0-3.31-2.82-6.13-6.13-6.13s-6.13,2.82-6.13,6.13v12.26h-18.39v-12.26c0-3.31-2.82-6.13-6.13-6.13s-6.13,2.82-6.13,6.13v12.26h-18.39v-55.16h79.68Z"/></g></g></g><g><g><path class="cls-3" d="m119.35,28.04v60.24c-25,0-45.17,20.48-45.17,45.17v30.12H13.94V28.04h105.41Z"/><path class="cls-3" d="m134.42,161.51l8.13-93.48,41.55,3.61-8.13,93.48-41.55-3.61ZM166.93,28.29c8.52.74,14.97,8.42,14.23,16.93-.76,8.73-8.42,14.97-16.94,14.23-8.72-.76-14.98-8.21-14.22-16.94.74-8.51,8.21-14.98,16.93-14.22Z"/><path class="cls-3" d="m268.69,65.02l5.94,41.28c-17.13,2.47-28.93,18.49-26.5,35.41l2.97,20.64-41.28,5.94-13.37-92.87,72.23-10.4Z"/><path class="cls-3" d="m401.25,103.36c-17.29-.78-31.89,12.76-32.66,29.84l-1.41,31.25-41.66-1.88,1.41-31.25c.77-17.08-12.76-31.89-29.84-32.66l-5.21-.24,1.2-31.25,5.42.24c17.08.77,31.88-12.55,32.66-29.84l.94-20.83,62.49,2.82-.94,20.83-5.21-.24c-8.75-.4-15.95,6.38-16.33,14.92-.39,8.75,6.17,15.93,14.71,16.32l21.04.95-1.41,31.24-5.21-.24Z"/><path class="cls-3" d="m513.99,118.35c3.53,8.01,12.6,11.53,20.62,8l6.31,14.31-85.86,37.85-37.85-85.86,85.86-37.85,18.93,42.93c-8.02,3.53-11.45,12.79-8,20.62Zm-26.93-22.31c-3.45-7.82-12.8-11.45-20.62-8-8.02,3.53-11.45,12.8-8,20.62,3.53,8.02,12.6,11.54,20.62,8,7.82-3.45,11.53-12.6,8-20.62Z"/><path class="cls-3" d="m628.44,112.27c4.87,7.28,14.41,9.17,21.69,4.31l8.69,13-78,52.16-52.16-78,78-52.16,26.08,39c-7.28,4.87-9.06,14.59-4.31,21.69Zm-30.39-17.31c-4.75-7.1-14.59-9.06-21.69-4.31-7.28,4.87-9.06,14.59-4.31,21.69,4.87,7.28,14.41,9.18,21.69,4.31,7.1-4.75,9.17-14.41,4.31-21.69Z"/><path class="cls-3" d="m383.96,241.59h-18.39l-.12-18.39h18.51v18.39Z"/><path class="cls-3" d="m396.83,186.42h55.16v18.39h-9.2c-5.15,0-9.19,4.17-9.19,9.2s4.05,9.19,9.19,9.19h9.2v18.39h-55.16v-55.16Z"/><path class="cls-3" d="m519.42,186.42v55.16h-55.16v-55.16h55.16Zm-18.39,27.58c0-5.03-4.17-9.2-9.19-9.2s-9.19,4.17-9.19,9.2,4.04,9.19,9.19,9.19,9.19-4.05,9.19-9.19Z"/><path class="cls-3" d="m611.36,186.42v55.16h-18.39v-12.26c0-3.31-2.82-6.13-6.13-6.13s-6.13,2.82-6.13,6.13v12.26h-18.39v-12.26c0-3.31-2.82-6.13-6.13-6.13s-6.13,2.82-6.13,6.13v12.26h-18.39v-55.16h79.68Z"/></g><g><g><path class="cls-2" d="m119.35,28.04v60.24c-25,0-45.17,20.48-45.17,45.17v30.12H13.94V28.04h105.41Z"/><path class="cls-2" d="m119.35,28.04v60.24c-25,0-45.17,20.48-45.17,45.17v30.12H13.94V28.04h105.41Z"/></g><g><path class="cls-2" d="m134.42,161.51l8.13-93.48,41.55,3.61-8.13,93.48-41.55-3.61ZM166.93,28.29c8.52.74,14.97,8.42,14.23,16.93-.76,8.73-8.42,14.97-16.94,14.23-8.72-.76-14.98-8.21-14.22-16.94.74-8.51,8.21-14.98,16.93-14.22Z"/><path class="cls-2" d="m134.42,161.51l8.13-93.48,41.55,3.61-8.13,93.48-41.55-3.61ZM166.93,28.29c8.52.74,14.97,8.42,14.23,16.93-.76,8.73-8.42,14.97-16.94,14.23-8.72-.76-14.98-8.21-14.22-16.94.74-8.51,8.21-14.98,16.93-14.22Z"/></g><g><path class="cls-2" d="m268.69,65.02l5.94,41.28c-17.13,2.47-28.93,18.49-26.5,35.41l2.97,20.64-41.28,5.94-13.37-92.87,72.23-10.4Z"/><path class="cls-2" d="m268.69,65.02l5.94,41.28c-17.13,2.47-28.93,18.49-26.5,35.41l2.97,20.64-41.28,5.94-13.37-92.87,72.23-10.4Z"/></g><g><path class="cls-2" d="m401.25,103.36c-17.29-.78-31.89,12.76-32.66,29.84l-1.41,31.25-41.66-1.88,1.41-31.25c.77-17.08-12.76-31.89-29.84-32.66l-5.21-.24,1.2-31.25,5.42.24c17.08.77,31.88-12.55,32.66-29.84l.94-20.83,62.49,2.82-.94,20.83-5.21-.24c-8.75-.4-15.95,6.38-16.33,14.92-.39,8.75,6.17,15.93,14.71,16.32l21.04.95-1.41,31.24-5.21-.24Z"/><path class="cls-2" d="m401.25,103.36c-17.29-.78-31.89,12.76-32.66,29.84l-1.41,31.25-41.66-1.88,1.41-31.25c.77-17.08-12.76-31.89-29.84-32.66l-5.21-.24,1.2-31.25,5.42.24c17.08.77,31.88-12.55,32.66-29.84l.94-20.83,62.49,2.82-.94,20.83-5.21-.24c-8.75-.4-15.95,6.38-16.33,14.92-.39,8.75,6.17,15.93,14.71,16.32l21.04.95-1.41,31.24-5.21-.24Z"/></g><g><path class="cls-2" d="m513.99,118.35c3.53,8.01,12.6,11.53,20.62,8l6.31,14.31-85.86,37.85-37.85-85.86,85.86-37.85,18.93,42.93c-8.02,3.53-11.45,12.79-8,20.62Zm-26.93-22.31c-3.45-7.82-12.8-11.45-20.62-8-8.02,3.53-11.45,12.8-8,20.62,3.53,8.02,12.6,11.54,20.62,8,7.82-3.45,11.53-12.6,8-20.62Z"/><path class="cls-2" d="m513.99,118.35c3.53,8.01,12.6,11.53,20.62,8l6.31,14.31-85.86,37.85-37.85-85.86,85.86-37.85,18.93,42.93c-8.02,3.53-11.45,12.79-8,20.62Zm-26.93-22.31c-3.45-7.82-12.8-11.45-20.62-8-8.02,3.53-11.45,12.8-8,20.62,3.53,8.02,12.6,11.54,20.62,8,7.82-3.45,11.53-12.6,8-20.62Z"/></g><g><path class="cls-2" d="m628.44,112.27c4.87,7.28,14.41,9.17,21.69,4.31l8.69,13-78,52.16-52.16-78,78-52.16,26.08,39c-7.28,4.87-9.06,14.59-4.31,21.69Zm-30.39-17.31c-4.75-7.1-14.59-9.06-21.69-4.31-7.28,4.87-9.06,14.59-4.31,21.69,4.87,7.28,14.41,9.18,21.69,4.31,7.1-4.75,9.17-14.41,4.31-21.69Z"/><path class="cls-2" d="m628.44,112.27c4.87,7.28,14.41,9.17,21.69,4.31l8.69,13-78,52.16-52.16-78,78-52.16,26.08,39c-7.28,4.87-9.06,14.59-4.31,21.69Zm-30.39-17.31c-4.75-7.1-14.59-9.06-21.69-4.31-7.28,4.87-9.06,14.59-4.31,21.69,4.87,7.28,14.41,9.18,21.69,4.31,7.1-4.75,9.17-14.41,4.31-21.69Z"/></g><g><path class="cls-2" d="m383.96,241.59h-18.39l-.12-18.39h18.51v18.39Z"/><path class="cls-2" d="m383.96,241.59h-18.39l-.12-18.39h18.51v18.39Z"/></g><g><path class="cls-2" d="m396.83,186.42h55.16v18.39h-9.2c-5.15,0-9.19,4.17-9.19,9.2s4.05,9.19,9.19,9.19h9.2v18.39h-55.16v-55.16Z"/><path class="cls-2" d="m396.83,186.42h55.16v18.39h-9.2c-5.15,0-9.19,4.17-9.19,9.2s4.05,9.19,9.19,9.19h9.2v18.39h-55.16v-55.16Z"/></g><g><path class="cls-2" d="m519.42,186.42v55.16h-55.16v-55.16h55.16Zm-18.39,27.58c0-5.03-4.17-9.2-9.19-9.2s-9.19,4.17-9.19,9.2,4.04,9.19,9.19,9.19,9.19-4.05,9.19-9.19Z"/><path class="cls-2" d="m519.42,186.42v55.16h-55.16v-55.16h55.16Zm-18.39,27.58c0-5.03-4.17-9.2-9.19-9.2s-9.19,4.17-9.19,9.2,4.04,9.19,9.19,9.19,9.19-4.05,9.19-9.19Z"/></g><g><path class="cls-2" d="m611.36,186.42v55.16h-18.39v-12.26c0-3.31-2.82-6.13-6.13-6.13s-6.13,2.82-6.13,6.13v12.26h-18.39v-12.26c0-3.31-2.82-6.13-6.13-6.13s-6.13,2.82-6.13,6.13v12.26h-18.39v-55.16h79.68Z"/><path class="cls-2" d="m611.36,186.42v55.16h-18.39v-12.26c0-3.31-2.82-6.13-6.13-6.13s-6.13,2.82-6.13,6.13v12.26h-18.39v-12.26c0-3.31-2.82-6.13-6.13-6.13s-6.13,2.82-6.13,6.13v12.26h-18.39v-55.16h79.68Z"/></g></g><g><g><path class="cls-4" d="m119.35,28.04v60.24c-25,0-45.17,20.48-45.17,45.17v30.12H13.94V28.04h105.41Z"/><path class="cls-4" d="m119.35,28.04v60.24c-25,0-45.17,20.48-45.17,45.17v30.12H13.94V28.04h105.41Z"/></g><g><path class="cls-4" d="m134.42,161.51l8.13-93.48,41.55,3.61-8.13,93.48-41.55-3.61ZM166.93,28.29c8.52.74,14.97,8.42,14.23,16.93-.76,8.73-8.42,14.97-16.94,14.23-8.72-.76-14.98-8.21-14.22-16.94.74-8.51,8.21-14.98,16.93-14.22Z"/><path class="cls-4" d="m134.42,161.51l8.13-93.48,41.55,3.61-8.13,93.48-41.55-3.61ZM166.93,28.29c8.52.74,14.97,8.42,14.23,16.93-.76,8.73-8.42,14.97-16.94,14.23-8.72-.76-14.98-8.21-14.22-16.94.74-8.51,8.21-14.98,16.93-14.22Z"/></g><g><path class="cls-4" d="m268.69,65.02l5.94,41.28c-17.13,2.47-28.93,18.49-26.5,35.41l2.97,20.64-41.28,5.94-13.37-92.87,72.23-10.4Z"/><path class="cls-4" d="m268.69,65.02l5.94,41.28c-17.13,2.47-28.93,18.49-26.5,35.41l2.97,20.64-41.28,5.94-13.37-92.87,72.23-10.4Z"/></g><g><path class="cls-4" d="m401.25,103.36c-17.29-.78-31.89,12.76-32.66,29.84l-1.41,31.25-41.66-1.88,1.41-31.25c.77-17.08-12.76-31.89-29.84-32.66l-5.21-.24,1.2-31.25,5.42.24c17.08.77,31.88-12.55,32.66-29.84l.94-20.83,62.49,2.82-.94,20.83-5.21-.24c-8.75-.4-15.95,6.38-16.33,14.92-.39,8.75,6.17,15.93,14.71,16.32l21.04.95-1.41,31.24-5.21-.24Z"/><path class="cls-4" d="m401.25,103.36c-17.29-.78-31.89,12.76-32.66,29.84l-1.41,31.25-41.66-1.88,1.41-31.25c.77-17.08-12.76-31.89-29.84-32.66l-5.21-.24,1.2-31.25,5.42.24c17.08.77,31.88-12.55,32.66-29.84l.94-20.83,62.49,2.82-.94,20.83-5.21-.24c-8.75-.4-15.95,6.38-16.33,14.92-.39,8.75,6.17,15.93,14.71,16.32l21.04.95-1.41,31.24-5.21-.24Z"/></g><g><path class="cls-4" d="m513.99,118.35c3.53,8.01,12.6,11.53,20.62,8l6.31,14.31-85.86,37.85-37.85-85.86,85.86-37.85,18.93,42.93c-8.02,3.53-11.45,12.79-8,20.62Zm-26.93-22.31c-3.45-7.82-12.8-11.45-20.62-8-8.02,3.53-11.45,12.8-8,20.62,3.53,8.02,12.6,11.54,20.62,8,7.82-3.45,11.53-12.6,8-20.62Z"/><path class="cls-4" d="m513.99,118.35c3.53,8.01,12.6,11.53,20.62,8l6.31,14.31-85.86,37.85-37.85-85.86,85.86-37.85,18.93,42.93c-8.02,3.53-11.45,12.79-8,20.62Zm-26.93-22.31c-3.45-7.82-12.8-11.45-20.62-8-8.02,3.53-11.45,12.8-8,20.62,3.53,8.02,12.6,11.54,20.62,8,7.82-3.45,11.53-12.6,8-20.62Z"/></g><g><path class="cls-4" d="m628.44,112.27c4.87,7.28,14.41,9.17,21.69,4.31l8.69,13-78,52.16-52.16-78,78-52.16,26.08,39c-7.28,4.87-9.06,14.59-4.31,21.69Zm-30.39-17.31c-4.75-7.1-14.59-9.06-21.69-4.31-7.28,4.87-9.06,14.59-4.31,21.69,4.87,7.28,14.41,9.18,21.69,4.31,7.1-4.75,9.17-14.41,4.31-21.69Z"/><path class="cls-4" d="m628.44,112.27c4.87,7.28,14.41,9.17,21.69,4.31l8.69,13-78,52.16-52.16-78,78-52.16,26.08,39c-7.28,4.87-9.06,14.59-4.31,21.69Zm-30.39-17.31c-4.75-7.1-14.59-9.06-21.69-4.31-7.28,4.87-9.06,14.59-4.31,21.69,4.87,7.28,14.41,9.18,21.69,4.31,7.1-4.75,9.17-14.41,4.31-21.69Z"/></g><g><path class="cls-4" d="m383.96,241.59h-18.39l-.12-18.39h18.51v18.39Z"/><path class="cls-4" d="m383.96,241.59h-18.39l-.12-18.39h18.51v18.39Z"/></g><g><path class="cls-4" d="m396.83,186.42h55.16v18.39h-9.2c-5.15,0-9.19,4.17-9.19,9.2s4.05,9.19,9.19,9.19h9.2v18.39h-55.16v-55.16Z"/><path class="cls-4" d="m396.83,186.42h55.16v18.39h-9.2c-5.15,0-9.19,4.17-9.19,9.2s4.05,9.19,9.19,9.19h9.2v18.39h-55.16v-55.16Z"/></g><g><path class="cls-4" d="m519.42,186.42v55.16h-55.16v-55.16h55.16Zm-18.39,27.58c0-5.03-4.17-9.2-9.19-9.2s-9.19,4.17-9.19,9.2,4.04,9.19,9.19,9.19,9.19-4.05,9.19-9.19Z"/><path class="cls-4" d="m519.42,186.42v55.16h-55.16v-55.16h55.16Zm-18.39,27.58c0-5.03-4.17-9.2-9.19-9.2s-9.19,4.17-9.19,9.2,4.04,9.19,9.19,9.19,9.19-4.05,9.19-9.19Z"/></g><g><path class="cls-4" d="m611.36,186.42v55.16h-18.39v-12.26c0-3.31-2.82-6.13-6.13-6.13s-6.13,2.82-6.13,6.13v12.26h-18.39v-12.26c0-3.31-2.82-6.13-6.13-6.13s-6.13,2.82-6.13,6.13v12.26h-18.39v-55.16h79.68Z"/><path class="cls-4" d="m611.36,186.42v55.16h-18.39v-12.26c0-3.31-2.82-6.13-6.13-6.13s-6.13,2.82-6.13,6.13v12.26h-18.39v-12.26c0-3.31-2.82-6.13-6.13-6.13s-6.13,2.82-6.13,6.13v12.26h-18.39v-55.16h79.68Z"/></g></g></g></svg>